<svg id="Capa_1" enable-background="new 0 0 512 512" height="512" viewBox="0 0 512 512" width="512" xmlns="http://www.w3.org/2000/svg"><g><path d="m482 273.763v-17.763c0-124.072-101.928-225-226-225s-226 100.928-226 225v17.763c-17.422 6.213-30 22.707-30 42.237v120c0 24.814 20.186 45 45 45h60c8.291 0 15-6.709 15-15v-180c0-8.291-6.709-15-15-15h-45v-15c0-107.52 88.48-195 196-195s196 87.48 196 195v15h-45c-8.291 0-15 6.709-15 15v180c0 8.291 6.709 15 15 15h60c24.814 0 45-20.186 45-45v-120c0-19.53-12.578-36.024-30-42.237z"/><path d="m266.624 245.413c-4.129-4.14-10.578-5.647-16.351-3.259-5.648 2.336-9.273 7.873-9.273 13.846v107.763c-4.715-1.681-9.716-2.763-15-2.763-24.814 0-45 20.186-45 45s20.186 45 45 45 45-20.186 45-45v-113.789l34.395 34.395c10.693 10.693 10.693 28.096 0 38.789-14.22 14.22 7.375 35.046 21.211 21.211 22.397-22.383 22.397-58.828 0-81.211z"/></g></svg>